<svg width="368" height="298" viewBox="0 0 368 298" fill="none" xmlns="http://www.w3.org/2000/svg">
<path d="M367.03 269.786C367.032 273.205 363.314 275.553 359.895 275.555C351.059 275.562 343.9 282.464 343.907 290.971C343.909 293.929 341.878 297.089 338.921 297.091L28.2694 297.299C25.1697 297.301 23.0492 293.931 23.047 290.831C23.0408 282.323 15.8723 275.43 7.03574 275.436C3.72907 275.439 0.177635 273.162 0.175224 269.855L0.000168007 29.8002C-0.00256122 26.0576 4.24812 23.5104 7.9907 23.5079C16.8271 23.502 23.9855 16.6008 23.9795 8.09293C23.9768 4.47012 26.4033 0.21044 30.0261 0.208014L340.384 0.000137457C342.387 -0.001204 343.836 1.92571 343.838 3.92849C343.844 12.4364 351.013 19.329 359.849 19.323C363.212 19.3207 366.849 21.6316 366.851 24.9948L367.03 269.786Z" fill="#FEFAEF"/>
</svg>
