<svg width="375" height="67" viewBox="0 0 375 67" fill="none" xmlns="http://www.w3.org/2000/svg">
<path d="M-648 0V35.2789L-638.419 38.5848L-610.922 37.1077L-588.986 40.1323L-566.354 38.0502L-543.547 35.9471L-525.282 40.8356L-507.079 40.1111L-489.099 42.3479L-470.274 39.45L-452.843 45.3794L-435.585 48.2915L-419.323 53.3839L-397.201 52.9408L-382.795 61.1704L-359.053 55.48L-343.609 61.1704L-326.317 60.3097L-306.994 60.4434L-290.657 64.6214L-282.731 63.867H-269.347L-248.793 61.3954L-228.151 66.6435L-208.908 61.3954L-188.373 59.018H-168.672L-146.554 55.6347L-125.502 61.3954L-107.647 52.9408L-85.9104 56.1623L-66.5088 63.8643L-47.0283 58.0474L-29.8578 49.9937L-9.8631 47.4193L13.0432 53.7146L32.7766 53.173L52.2861 56.9177L73.55 56.6082L85.2243 50.9282L106.526 58.429L124.567 53.2732L137.118 50.9282L153.212 49.0863L176.304 53.7146L188.383 42.9317L213.641 49.0863L228.398 36.4817L250.072 42.2002L268.736 33.3939L290.597 42.0806L308.906 45.2024L327.722 47.6291L347.754 47.8261L367.313 45.2024L387.146 44.6116L407.887 47.7979L428.579 49.7885L449.395 50.513L470.659 48.6631L491.972 47.1508L513.411 45.322L532.348 48.4309L551.558 52.0815L571.28 49.7041L593.354 44.6116L611.994 40.3784L630.844 43.5296L650.975 42.8332L667.026 51.1261L687.22 54.2983L708.434 53.7356L730.444 46.6526L753.537 46.1039L775.709 52.4273L796.737 52.7931L818.61 49.9795L838.767 53.4191L858.699 58.9758L879.914 56.2678L900.518 56.106L922.777 62.0566L940.122 52.5188L959.196 49.2902L980.907 56.0146L999.77 48.0945L1020.28 48.3547L1023 49.5364L1020.28 0H-648Z" fill="#F7DCDC"/>
</svg>
