<svg width="367" height="756" viewBox="0 0 367 756" fill="none" xmlns="http://www.w3.org/2000/svg">
<mask id="path-1-inside-1_28_7987" fill="white">
<path d="M334.374 0C336.455 0 338 1.91908 338 4C338 15.0457 346.954 24 358 24C362.28 24 367 26.9183 367 31.1985V585C367 589.418 363.204 592.834 359.328 594.956C354.365 597.673 351 602.943 351 609C351 615.057 354.365 620.327 359.328 623.044C363.204 625.166 367 628.582 367 633V724.801C367 729.081 362.28 732 358 732C346.954 732 338 740.954 338 752C338 754.081 336.455 756 334.374 756H32.6263C30.5454 756 29 754.081 29 752C29 740.954 20.0457 732 9 732C4.71989 732 0 729.081 0 724.801V633C0 628.582 3.79619 625.166 7.67177 623.044C12.6346 620.327 16 615.057 16 609C16 602.943 12.6346 597.673 7.67177 594.956C3.79619 592.834 0 589.418 0 585V31.1985C0 26.9183 4.71983 24 9 24C20.0457 24 29 15.0457 29 4C29 1.91908 30.5454 0 32.6263 0H334.374Z"/>
</mask>
<path d="M334.374 0C336.455 0 338 1.91908 338 4C338 15.0457 346.954 24 358 24C362.28 24 367 26.9183 367 31.1985V585C367 589.418 363.204 592.834 359.328 594.956C354.365 597.673 351 602.943 351 609C351 615.057 354.365 620.327 359.328 623.044C363.204 625.166 367 628.582 367 633V724.801C367 729.081 362.28 732 358 732C346.954 732 338 740.954 338 752C338 754.081 336.455 756 334.374 756H32.6263C30.5454 756 29 754.081 29 752C29 740.954 20.0457 732 9 732C4.71989 732 0 729.081 0 724.801V633C0 628.582 3.79619 625.166 7.67177 623.044C12.6346 620.327 16 615.057 16 609C16 602.943 12.6346 597.673 7.67177 594.956C3.79619 592.834 0 589.418 0 585V31.1985C0 26.9183 4.71983 24 9 24C20.0457 24 29 15.0457 29 4C29 1.91908 30.5454 0 32.6263 0H334.374Z" fill="#FEFAEF"/>
<path d="M7.67177 594.956L8.15195 594.079L7.67177 594.956ZM359.328 623.044L358.848 623.921L359.328 623.044ZM7.67177 623.044L7.19159 622.167L7.67177 623.044ZM359.328 594.956L359.808 595.833L359.328 594.956ZM338 4H337C337 15.598 346.402 25 358 25V24V23C347.507 23 339 14.4934 339 4H338ZM367 31.1985H366V585H367H368V31.1985H367ZM359.328 594.956L358.848 594.079C353.578 596.964 350 602.563 350 609H351H352C352 603.323 355.153 598.381 359.808 595.833L359.328 594.956ZM351 609H350C350 615.437 353.578 621.036 358.848 623.921L359.328 623.044L359.808 622.167C355.153 619.619 352 614.677 352 609H351ZM367 633H366V724.801H367H368V633H367ZM358 732V731C346.402 731 337 740.402 337 752H338H339C339 741.507 347.507 733 358 733V732ZM334.374 756V755H32.6263V756V757H334.374V756ZM29 752H30C30 740.402 20.598 731 9 731V732V733C19.4934 733 28 741.507 28 752H29ZM0 724.801H1V633H0H-1V724.801H0ZM7.67177 623.044L8.15195 623.921C13.4224 621.036 17 615.437 17 609H16H15C15 614.677 11.8468 619.619 7.19159 622.167L7.67177 623.044ZM16 609H17C17 602.563 13.4224 596.964 8.15195 594.079L7.67177 594.956L7.19159 595.833C11.8468 598.381 15 603.323 15 609H16ZM0 585H1V31.1985H0H-1V585H0ZM9 24V25C20.598 25 30 15.598 30 4H29H28C28 14.4934 19.4934 23 9 23V24ZM32.6263 0V1H334.374V0V-1H32.6263V0ZM29 4H30C30 2.34032 31.2202 1 32.6263 1V0V-1C29.8706 -1 28 1.49784 28 4H29ZM338 752H337C337 753.66 335.78 755 334.374 755V756V757C337.129 757 339 754.502 339 752H338ZM0 31.1985H1C1 29.4592 1.95374 27.9307 3.48842 26.799C5.02862 25.6633 7.06991 25 9 25V24V23C6.64992 23 4.19121 23.7959 2.30145 25.1893C0.406173 26.5869 -1 28.6576 -1 31.1985H0ZM367 724.801H366C366 726.54 365.046 728.069 363.512 729.201C361.971 730.337 359.93 731 358 731V732V733C360.35 733 362.809 732.204 364.699 730.81C366.594 729.412 368 727.342 368 724.801H367ZM7.67177 594.956L8.15195 594.079C6.28219 593.055 4.47268 591.74 3.14162 590.188C1.81491 588.641 1 586.905 1 585H0H-1C-1 587.513 0.0831816 589.694 1.62347 591.49C3.15939 593.281 5.18576 594.735 7.19159 595.833L7.67177 594.956ZM359.328 623.044L358.848 623.921C360.718 624.945 362.527 626.26 363.858 627.812C365.185 629.359 366 631.095 366 633H367H368C368 630.487 366.917 628.306 365.377 626.51C363.841 624.719 361.814 623.265 359.808 622.167L359.328 623.044ZM0 633H1C1 631.095 1.81491 629.359 3.14162 627.812C4.47268 626.26 6.2822 624.945 8.15195 623.921L7.67177 623.044L7.19159 622.167C5.18577 623.265 3.1594 624.719 1.62347 626.51C0.0831825 628.306 -1 630.487 -1 633H0ZM367 585H366C366 586.905 365.185 588.641 363.858 590.188C362.527 591.74 360.718 593.055 358.848 594.079L359.328 594.956L359.808 595.833C361.814 594.735 363.841 593.281 365.377 591.49C366.917 589.694 368 587.513 368 585H367ZM9 732V731C7.07001 731 5.02873 730.337 3.4885 729.201C1.95378 728.069 1 726.54 1 724.801H0H-1C-1 727.342 0.406167 729.412 2.30142 730.81C4.19116 732.204 6.64988 733 9 733V732ZM358 24V25C359.93 25 361.971 25.6633 363.512 26.799C365.046 27.9307 366 29.4593 366 31.1985H367H368C368 28.6576 366.594 26.5869 364.699 25.1893C362.809 23.7959 360.35 23 358 23V24ZM32.6263 756V755C31.2202 755 30 753.66 30 752H29H28C28 754.502 29.8706 757 32.6263 757V756ZM338 4H339C339 1.49784 337.129 -1 334.374 -1V0V1C335.78 1 337 2.34032 337 4H338Z" fill="#7A8766" mask="url(#path-1-inside-1_28_7987)"/>
</svg>
